<?xml version="1.0" encoding="utf-8"?>
<!-- Generator: Adobe Illustrator 20.0.0, SVG Export Plug-In . SVG Version: 6.00 Build 0)  -->
<svg version="1.1" id="Layer_1" xmlns="http://www.w3.org/2000/svg" xmlns:xlink="http://www.w3.org/1999/xlink" x="0px" y="0px"
	 viewBox="0 0 274 68" style="enable-background:new 0 0 274 68;" xml:space="preserve">
<style type="text/css">
	.st0{fill:#59595C;}
	.st1{fill:#518BC8;}
	.st2{fill:#F79729;}
	.st3{fill:#66C9E7;}
</style>
<g>
	<g>
		<path class="st0" d="M84.2,27.5c0-1.5,0.3-3,0.8-4.3c0.5-1.3,1.3-2.5,2.4-3.6h-5.6v-5.4h11.8v-2.2c0-0.5-0.2-1.2-0.5-2
			c-0.3-0.8-0.8-1.4-1.4-1.8h5.5c1.2,0,2.1,0.4,2.6,1.1s0.8,1.6,0.8,2.5v2.3h11.3v5.4h-5.2c1,1,1.8,2.2,2.3,3.6
			c0.5,1.3,0.8,2.8,0.8,4.3c0,1.6-0.3,3.1-0.9,4.5c-0.6,1.4-1.4,2.6-2.5,3.6c-1.1,1-2.4,1.8-4,2.4c-1.6,0.6-3.4,0.9-5.4,0.9
			s-3.8-0.3-5.4-0.9c-1.6-0.6-2.9-1.4-4-2.4c-1.1-1-1.9-2.2-2.5-3.6C84.5,30.6,84.2,29.1,84.2,27.5z M91.3,27.3c0,1.6,0.5,3,1.6,4.1
			c1,1.1,2.5,1.7,4.2,1.7c1.9,0,3.3-0.6,4.3-1.7c0.9-1.1,1.4-2.5,1.4-4.1c0-0.8-0.1-1.5-0.4-2.2c-0.2-0.7-0.6-1.3-1.1-1.9
			c-0.5-0.5-1.1-1-1.8-1.3c-0.7-0.3-1.6-0.5-2.5-0.5c-0.9,0-1.7,0.2-2.4,0.5c-0.7,0.3-1.3,0.7-1.8,1.3c-0.5,0.5-0.9,1.2-1.1,1.9
			C91.4,25.7,91.3,26.5,91.3,27.3z M99.2,42.9v9.3c0,0.6,0.1,0.9,0.3,1.1c0.2,0.2,0.6,0.3,1.2,0.3h24.7v5.4H96.7
			c-1.5,0-2.7-0.4-3.6-1.3c-0.9-0.8-1.3-2-1.3-3.4V42.9H99.2z M116.3,44.9V11.1c0-0.6-0.2-1.3-0.5-2.1c-0.4-0.8-0.8-1.3-1.4-1.6h5.5
			c2.5,0,3.8,1.2,3.8,3.5V24h7.6v5.4h-7.6v15.5H116.3z"/>
		<path class="st0" d="M152.9,9.5c1,0,1.8,0.3,2.4,0.9c0.7,0.6,0.9,1.4,0.9,2.3c0,0.4-0.1,0.7-0.1,1.1c0,0.4-0.1,0.7-0.2,1.1h10.7
			v-3.7c0-0.6-0.2-1.3-0.5-2.1c-0.4-0.8-0.8-1.3-1.4-1.6h5.5c2.5,0,3.8,1.2,3.8,3.5v23.5h-7.4v-4.2h-12.7v-5.4h12.7v-4.6h-12.4
			c-0.9,1.8-2,3.5-3.4,5.1c-1.4,1.6-3,3.1-4.8,4.4s-3.9,2.4-6.2,3.4c-2.3,1-4.8,1.7-7.4,2.3l-2.1-5.3c2.4-0.5,4.6-1.2,6.7-2.3
			c2.1-1,3.9-2.2,5.5-3.5c1.6-1.3,2.9-2.7,3.9-4.2c1-1.5,1.6-2.9,1.9-4.4c0.1-0.3,0-0.5-0.1-0.6c-0.1-0.1-0.4-0.2-0.8-0.2h-15.1V9.5
			H152.9z M140.3,42.3V37h30.3c1.2,0,2.1,0.3,2.6,1c0.5,0.7,0.8,1.5,0.8,2.5V51h-25.9v2.1c0,0.5,0.1,0.8,0.3,1
			c0.2,0.1,0.5,0.2,1,0.2H175v5.4h-30.1c-2.8,0-4.2-1.5-4.2-4.4v-4.9c0-1-0.1-1.9-0.4-2.7c-0.2-0.8-0.7-1.5-1.5-2.1h27.7v-2.2
			c0-0.7-0.5-1.1-1.4-1.1H140.3z"/>
		<path class="st0" d="M192.2,35.2c-2.2,0-4.2-0.4-5.9-1.1c-1.7-0.7-3.2-1.7-4.4-2.9s-2.1-2.6-2.7-4.1c-0.6-1.5-0.9-3.1-0.9-4.8
			c0-1.6,0.3-3.2,0.9-4.8c0.6-1.6,1.5-3,2.7-4.2c1.2-1.2,2.6-2.2,4.4-2.9c1.7-0.7,3.7-1.1,5.9-1.1s4.2,0.4,5.9,1.1
			c1.7,0.7,3.2,1.7,4.4,2.9c1.2,1.2,2.1,2.6,2.7,4.2c0.6,1.6,0.9,3.2,0.9,4.8c0,1.6-0.3,3.2-0.9,4.8c-0.6,1.5-1.5,2.9-2.7,4.1
			s-2.6,2.2-4.4,2.9C196.4,34.8,194.4,35.2,192.2,35.2z M192.2,29.8c1.1,0,2-0.2,2.9-0.6c0.8-0.4,1.5-1,2.1-1.7
			c0.6-0.7,1-1.5,1.3-2.4c0.3-0.9,0.4-1.8,0.4-2.7c0-0.9-0.1-1.8-0.4-2.7c-0.3-0.9-0.7-1.7-1.3-2.3c-0.6-0.7-1.3-1.2-2.1-1.6
			c-0.8-0.4-1.8-0.6-2.9-0.6s-2,0.2-2.9,0.6c-0.8,0.4-1.5,1-2.1,1.6c-0.6,0.7-1,1.5-1.3,2.3c-0.3,0.9-0.4,1.8-0.4,2.7
			c0,0.9,0.1,1.8,0.4,2.7c0.3,0.9,0.7,1.7,1.3,2.4c0.6,0.7,1.3,1.2,2.1,1.7C190.2,29.6,191.1,29.8,192.2,29.8z M221.2,59.4h-27.7
			c-1.5,0-2.7-0.4-3.6-1.3c-1-0.9-1.4-2.3-1.4-4.2v-15h7.3v5h18v-5.3h7.4V59.4z M213.8,54.1v-4.7h-18v2.8c0,0.7,0.1,1.2,0.3,1.5
			c0.2,0.3,0.7,0.5,1.3,0.5H213.8z M213.8,35.7V11.1c0-0.6-0.2-1.3-0.5-2.1c-0.4-0.8-0.8-1.3-1.4-1.6h5.5c2.5,0,3.8,1.2,3.8,3.5
			v24.8H213.8z"/>
		<path class="st0" d="M225.1,13.1h10.3v-1.9c0-0.3,0-0.6-0.1-0.9c-0.1-0.4-0.1-0.7-0.3-1.1c-0.1-0.4-0.3-0.7-0.5-1
			c-0.2-0.3-0.5-0.6-0.8-0.8h6.1c1.2,0,2,0.4,2.5,1.1s0.6,1.6,0.6,2.5v2.1H253v5.4h-9.6c0.3,1.3,0.8,2.6,1.6,3.7
			c0.8,1.2,1.7,2.3,2.7,3.2s2.2,1.8,3.4,2.6c1.2,0.8,2.5,1.4,3.8,1.9l-3,4.5c-1.1-0.4-2.3-0.9-3.5-1.5s-2.3-1.3-3.4-2.1
			c-1.1-0.8-2.1-1.7-3-2.6c-0.9-0.9-1.6-1.9-2-2.9c-1,2.1-2.6,4.1-4.9,6c-2.3,1.9-4.9,3.3-7.9,4.4l-3.6-5.3c3-1.3,5.5-2.9,7.6-4.9
			c2.1-2,3.4-4.3,3.9-7.1h-9.9V13.1z M233.8,42.3v-5.1h28.9c1.2,0,2.1,0.3,2.6,1c0.5,0.7,0.8,1.5,0.8,2.5v10h-24.5v2.3
			c0,0.5,0.1,0.8,0.3,1c0.2,0.1,0.5,0.2,1,0.2h24.3v5.4h-28.8c-2.8,0-4.2-1.5-4.2-4.4v-4.9c0-1-0.1-1.9-0.4-2.7
			c-0.2-0.8-0.7-1.5-1.5-2.1h26.4v-2.2c0-0.7-0.5-1.1-1.4-1.1H233.8z M258.8,34.5V11.1c0-0.6-0.2-1.3-0.5-2.1
			c-0.4-0.8-0.8-1.3-1.4-1.6h5.5c2.5,0,3.8,1.2,3.8,3.5v9.6h7.6v5.4h-7.6v8.7H258.8z"/>
	</g>
	<g>
		<path class="st1" d="M63.3,24.7c0.4,18.4-14.1,33.6-32.4,34c-7,0.2-13.5-1.8-18.9-5.3c6.2,8.6,16.4,14.1,27.8,13.8
			c18.4-0.4,32.9-15.7,32.4-34C72,21.8,66,11.9,57.1,6.1C60.9,11.4,63.2,17.8,63.3,24.7z"/>
		<path class="st2" d="M9.2,43.3C8.8,24.9,23.3,9.7,41.6,9.2c7-0.2,13.5,1.8,18.9,5.3C54.3,6,44.1,0.4,32.7,0.7
			C14.4,1.2-0.2,16.4,0.3,34.8c0.3,11.4,6.3,21.3,15.2,27.1C11.7,56.6,9.4,50.2,9.2,43.3z"/>
		<g>
			<g>
				<circle class="st3" cx="36.7" cy="34" r="8.3"/>
				<g>
					<polygon class="st3" points="36.7,34 36.7,31 47.2,32.5 57.6,34 47.2,35.5 36.7,37 					"/>
					<polygon class="st3" points="36.7,34 36.7,37 26.3,35.5 15.8,34 26.3,32.5 36.7,31 					"/>
					<polygon class="st3" points="36.7,34 33.7,34 35.2,23.6 36.7,13.1 38.2,23.6 39.7,34 					"/>
					<polygon class="st3" points="36.7,34 39.7,34 38.2,44.4 36.7,54.9 35.2,44.4 33.7,34 					"/>
				</g>
				<g>
					<polygon class="st3" points="36.7,34 38.4,32.3 43.6,39.1 48.7,46 41.8,40.9 35,35.7 					"/>
					<polygon class="st3" points="36.7,34 35,35.7 29.9,28.9 24.7,22 31.6,27.1 38.4,32.3 					"/>
					<polygon class="st3" points="36.7,34 35,32.3 41.8,27.1 48.7,22 43.6,28.9 38.4,35.7 					"/>
					<polygon class="st3" points="36.7,34 38.4,35.7 31.6,40.9 24.7,46 29.9,39.1 35,32.3 					"/>
				</g>
			</g>
		</g>
	</g>
</g>
</svg>
